<svg width="245" height="303" viewBox="0 0 245 303" fill="none" xmlns="http://www.w3.org/2000/svg">
<g clip-path="url(#clip0_271_42)">
<rect width="245" height="303" rx="17" fill="#020202"/>
<rect x="92.3849" y="156" width="161.859" height="202.437" rx="12" transform="rotate(19.4808 92.3849 156)" fill="white"/>
<path d="M107.072 197.318L164.587 217.663" stroke="#030111" stroke-opacity="0.3" stroke-width="7" stroke-linecap="round"/>
<path d="M99.0104 220.108L177.259 247.786" stroke="#030111" stroke-opacity="0.15" stroke-width="7" stroke-linecap="round"/>
<path d="M75 287.986L142.879 311.996" stroke="#030111" stroke-opacity="0.3" stroke-width="7" stroke-linecap="round"/>
<path d="M91.0069 242.734L148.523 263.079" stroke="#030111" stroke-opacity="0.15" stroke-width="7" stroke-linecap="round"/>
<path d="M83.0035 265.36L116.943 277.365" stroke="#030111" stroke-opacity="0.15" stroke-width="7" stroke-linecap="round"/>
<path d="M25.008 83V60.6H29.168V79.48H40.88V83H25.008ZM48.776 83.224C46.8773 83.224 45.2133 82.8507 43.784 82.104C42.376 81.336 41.2773 80.2907 40.488 78.968C39.72 77.6453 39.336 76.1413 39.336 74.456C39.336 72.7493 39.7093 71.2453 40.456 69.944C41.224 68.6213 42.2693 67.5867 43.592 66.84C44.936 66.0933 46.4613 65.72 48.168 65.72C49.832 65.72 51.3147 66.0827 52.616 66.808C53.9173 67.5333 54.9413 68.5573 55.688 69.88C56.4347 71.2027 56.808 72.76 56.808 74.552C56.808 74.7227 56.7973 74.9147 56.776 75.128C56.776 75.3413 56.7653 75.544 56.744 75.736H42.504V73.08H54.632L53.064 73.912C53.0853 72.9307 52.8827 72.0667 52.456 71.32C52.0293 70.5733 51.4427 69.9867 50.696 69.56C49.9707 69.1333 49.128 68.92 48.168 68.92C47.1867 68.92 46.3227 69.1333 45.576 69.56C44.8507 69.9867 44.2747 70.584 43.848 71.352C43.4427 72.0987 43.24 72.984 43.24 74.008V74.648C43.24 75.672 43.4747 76.5787 43.944 77.368C44.4133 78.1573 45.0747 78.7653 45.928 79.192C46.7813 79.6187 47.7627 79.832 48.872 79.832C49.832 79.832 50.696 79.6827 51.464 79.384C52.232 79.0853 52.9147 78.616 53.512 77.976L55.656 80.44C54.888 81.336 53.9173 82.0293 52.744 82.52C51.592 82.9893 50.2693 83.224 48.776 83.224ZM64.2022 83.224C62.3249 83.224 60.8742 82.744 59.8502 81.784C58.8262 80.8027 58.3142 79.3627 58.3142 77.464V62.136H62.3142V77.368C62.3142 78.1787 62.5169 78.808 62.9222 79.256C63.3489 79.704 63.9356 79.928 64.6822 79.928C65.5782 79.928 66.3249 79.6933 66.9222 79.224L68.0422 82.072C67.5729 82.456 66.9969 82.744 66.3142 82.936C65.6316 83.128 64.9276 83.224 64.2022 83.224ZM55.4982 69.112V65.912H66.8902V69.112H55.4982ZM67.3968 68.952L69.2528 61.848L69.7968 64.248C69.0501 64.248 68.4208 64.0133 67.9088 63.544C67.4181 63.0747 67.1728 62.4453 67.1728 61.656C67.1728 60.8667 67.4181 60.2373 67.9088 59.768C68.4208 59.2773 69.0394 59.032 69.7648 59.032C70.5114 59.032 71.1301 59.2773 71.6208 59.768C72.1114 60.2587 72.3568 60.888 72.3568 61.656C72.3568 61.8907 72.3354 62.136 72.2928 62.392C72.2714 62.6267 72.2074 62.904 72.1008 63.224C72.0154 63.5227 71.8661 63.9173 71.6528 64.408L69.9888 68.952H67.3968ZM78.134 83.224C76.7047 83.224 75.3287 83.0427 74.006 82.68C72.7047 82.296 71.67 81.8373 70.902 81.304L72.438 78.264C73.206 78.7547 74.1233 79.16 75.19 79.48C76.2567 79.8 77.3233 79.96 78.39 79.96C79.6487 79.96 80.5553 79.7893 81.11 79.448C81.686 79.1067 81.974 78.648 81.974 78.072C81.974 77.6027 81.782 77.2507 81.398 77.016C81.014 76.76 80.5127 76.568 79.894 76.44C79.2753 76.312 78.582 76.1947 77.814 76.088C77.0673 75.9813 76.31 75.8427 75.542 75.672C74.7953 75.48 74.1127 75.2133 73.494 74.872C72.8753 74.5093 72.374 74.0293 71.99 73.432C71.606 72.8347 71.414 72.0453 71.414 71.064C71.414 69.976 71.7233 69.0373 72.342 68.248C72.9607 67.4373 73.8247 66.8187 74.934 66.392C76.0647 65.944 77.398 65.72 78.934 65.72C80.086 65.72 81.2487 65.848 82.422 66.104C83.5953 66.36 84.566 66.7227 85.334 67.192L83.798 70.232C82.9873 69.7413 82.166 69.4107 81.334 69.24C80.5233 69.048 79.7127 68.952 78.902 68.952C77.686 68.952 76.7793 69.1333 76.182 69.496C75.606 69.8587 75.318 70.3173 75.318 70.872C75.318 71.384 75.51 71.768 75.894 72.024C76.278 72.28 76.7793 72.4827 77.398 72.632C78.0167 72.7813 78.6993 72.9093 79.446 73.016C80.214 73.1013 80.9713 73.24 81.718 73.432C82.4647 73.624 83.1473 73.8907 83.766 74.232C84.406 74.552 84.918 75.0107 85.302 75.608C85.686 76.2053 85.878 76.984 85.878 77.944C85.878 79.0107 85.558 79.9387 84.918 80.728C84.2993 81.5173 83.414 82.136 82.262 82.584C81.11 83.0107 79.734 83.224 78.134 83.224ZM32.304 115.224C30.5547 115.224 28.9973 114.851 27.632 114.104C26.2667 113.336 25.1893 112.291 24.4 110.968C23.6107 109.645 23.216 108.141 23.216 106.456C23.216 104.749 23.6107 103.245 24.4 101.944C25.1893 100.621 26.2667 99.5867 27.632 98.84C28.9973 98.0933 30.5547 97.72 32.304 97.72C34.0747 97.72 35.6427 98.0933 37.008 98.84C38.3947 99.5867 39.472 100.611 40.24 101.912C41.0293 103.213 41.424 104.728 41.424 106.456C41.424 108.141 41.0293 109.645 40.24 110.968C39.472 112.291 38.3947 113.336 37.008 114.104C35.6427 114.851 34.0747 115.224 32.304 115.224ZM32.304 111.8C33.2853 111.8 34.16 111.587 34.928 111.16C35.696 110.733 36.2933 110.115 36.72 109.304C37.168 108.493 37.392 107.544 37.392 106.456C37.392 105.347 37.168 104.397 36.72 103.608C36.2933 102.797 35.696 102.179 34.928 101.752C34.16 101.325 33.296 101.112 32.336 101.112C31.3547 101.112 30.48 101.325 29.712 101.752C28.9653 102.179 28.368 102.797 27.92 103.608C27.472 104.397 27.248 105.347 27.248 106.456C27.248 107.544 27.472 108.493 27.92 109.304C28.368 110.115 28.9653 110.733 29.712 111.16C30.48 111.587 31.344 111.8 32.304 111.8ZM42.369 115V97.912H46.177V102.616L45.729 101.24C46.241 100.088 47.041 99.2133 48.129 98.616C49.2383 98.0187 50.6143 97.72 52.257 97.72V101.528C52.0863 101.485 51.9263 101.464 51.777 101.464C51.6277 101.443 51.4783 101.432 51.329 101.432C49.8143 101.432 48.609 101.88 47.713 102.776C46.817 103.651 46.369 104.963 46.369 106.712V115H42.369ZM60.358 121.432C58.7793 121.432 57.2327 121.219 55.718 120.792C54.2247 120.387 52.998 119.789 52.038 119L53.83 115.992C54.5767 116.611 55.5153 117.101 56.646 117.464C57.798 117.848 58.9607 118.04 60.134 118.04C62.0113 118.04 63.3873 117.603 64.262 116.728C65.1367 115.875 65.574 114.584 65.574 112.856V109.816L65.894 105.944L65.766 102.072V97.912H69.574V112.408C69.574 115.501 68.7847 117.773 67.206 119.224C65.6273 120.696 63.3447 121.432 60.358 121.432ZM59.846 114.232C58.2247 114.232 56.7527 113.891 55.43 113.208C54.1287 112.504 53.094 111.533 52.326 110.296C51.5793 109.059 51.206 107.608 51.206 105.944C51.206 104.301 51.5793 102.861 52.326 101.624C53.094 100.387 54.1287 99.4267 55.43 98.744C56.7527 98.0613 58.2247 97.72 59.846 97.72C61.2967 97.72 62.598 98.008 63.75 98.584C64.902 99.16 65.8193 100.056 66.502 101.272C67.206 102.488 67.558 104.045 67.558 105.944C67.558 107.843 67.206 109.411 66.502 110.648C65.8193 111.864 64.902 112.771 63.75 113.368C62.598 113.944 61.2967 114.232 59.846 114.232ZM60.454 110.84C61.4567 110.84 62.3527 110.637 63.142 110.232C63.9313 109.805 64.5393 109.229 64.966 108.504C65.414 107.757 65.638 106.904 65.638 105.944C65.638 104.984 65.414 104.141 64.966 103.416C64.5393 102.669 63.9313 102.104 63.142 101.72C62.3527 101.315 61.4567 101.112 60.454 101.112C59.4513 101.112 58.5447 101.315 57.734 101.72C56.9447 102.104 56.326 102.669 55.878 103.416C55.4513 104.141 55.238 104.984 55.238 105.944C55.238 106.904 55.4513 107.757 55.878 108.504C56.326 109.229 56.9447 109.805 57.734 110.232C58.5447 110.637 59.4513 110.84 60.454 110.84ZM82.4808 115V111.544L82.2568 110.808V104.76C82.2568 103.587 81.9048 102.68 81.2008 102.04C80.4968 101.379 79.4301 101.048 78.0008 101.048C77.0408 101.048 76.0914 101.197 75.1528 101.496C74.2354 101.795 73.4568 102.211 72.8168 102.744L71.2488 99.832C72.1661 99.128 73.2541 98.6053 74.5128 98.264C75.7928 97.9013 77.1154 97.72 78.4808 97.72C80.9554 97.72 82.8648 98.3173 84.2088 99.512C85.5741 100.685 86.2568 102.509 86.2568 104.984V115H82.4808ZM77.1048 115.224C75.8248 115.224 74.7048 115.011 73.7448 114.584C72.7848 114.136 72.0381 113.528 71.5048 112.76C70.9928 111.971 70.7368 111.085 70.7368 110.104C70.7368 109.144 70.9608 108.28 71.4088 107.512C71.8781 106.744 72.6354 106.136 73.6808 105.688C74.7261 105.24 76.1128 105.016 77.8408 105.016H82.8008V107.672H78.1288C76.7634 107.672 75.8461 107.896 75.3768 108.344C74.9074 108.771 74.6728 109.304 74.6728 109.944C74.6728 110.669 74.9608 111.245 75.5368 111.672C76.1128 112.099 76.9128 112.312 77.9368 112.312C78.9181 112.312 79.7928 112.088 80.5608 111.64C81.3501 111.192 81.9154 110.531 82.2568 109.656L82.9288 112.056C82.5448 113.059 81.8514 113.837 80.8488 114.392C79.8674 114.947 78.6194 115.224 77.1048 115.224ZM88.5102 115V97.912H92.3182V102.52L91.6462 101.112C92.2436 100.024 93.1076 99.192 94.2382 98.616C95.3903 98.0187 96.7129 97.72 98.2063 97.72C99.5716 97.72 100.788 97.9867 101.854 98.52C102.942 99.0533 103.796 99.8747 104.414 100.984C105.033 102.072 105.342 103.48 105.342 105.208V115H101.342V105.72C101.342 104.205 100.98 103.075 100.254 102.328C99.5503 101.581 98.5582 101.208 97.2782 101.208C96.3396 101.208 95.5076 101.4 94.7823 101.784C94.0569 102.168 93.4916 102.744 93.0862 103.512C92.7023 104.259 92.5103 105.208 92.5103 106.36V115H88.5102ZM107.536 115V97.912H111.536V115H107.536ZM109.552 95.096C108.806 95.096 108.187 94.8613 107.696 94.392C107.227 93.9227 106.992 93.3573 106.992 92.696C106.992 92.0133 107.227 91.448 107.696 91C108.187 90.5307 108.806 90.296 109.552 90.296C110.299 90.296 110.907 90.52 111.376 90.968C111.867 91.3947 112.112 91.9387 112.112 92.6C112.112 93.304 111.878 93.9013 111.408 94.392C110.939 94.8613 110.32 95.096 109.552 95.096ZM112.499 115V112.472L123.027 99.736L123.763 101.112H112.691V97.912H126.963V100.44L116.435 113.176L115.635 111.8H127.251V115H112.499ZM135.84 115.224C133.941 115.224 132.277 114.851 130.848 114.104C129.44 113.336 128.341 112.291 127.552 110.968C126.784 109.645 126.4 108.141 126.4 106.456C126.4 104.749 126.773 103.245 127.52 101.944C128.288 100.621 129.333 99.5867 130.656 98.84C132 98.0933 133.525 97.72 135.232 97.72C136.896 97.72 138.378 98.0827 139.68 98.808C140.981 99.5333 142.005 100.557 142.752 101.88C143.498 103.203 143.872 104.76 143.872 106.552C143.872 106.723 143.861 106.915 143.84 107.128C143.84 107.341 143.829 107.544 143.808 107.736H129.568V105.08H141.696L140.128 105.912C140.149 104.931 139.946 104.067 139.52 103.32C139.093 102.573 138.506 101.987 137.76 101.56C137.034 101.133 136.192 100.92 135.232 100.92C134.25 100.92 133.386 101.133 132.64 101.56C131.914 101.987 131.338 102.584 130.912 103.352C130.506 104.099 130.304 104.984 130.304 106.008V106.648C130.304 107.672 130.538 108.579 131.008 109.368C131.477 110.157 132.138 110.765 132.992 111.192C133.845 111.619 134.826 111.832 135.936 111.832C136.896 111.832 137.76 111.683 138.528 111.384C139.296 111.085 139.978 110.616 140.576 109.976L142.72 112.44C141.952 113.336 140.981 114.029 139.808 114.52C138.656 114.989 137.333 115.224 135.84 115.224ZM152.206 121.432C151.374 121.432 150.542 121.293 149.71 121.016C148.878 120.739 148.184 120.355 147.63 119.864L149.23 116.92C149.635 117.283 150.094 117.571 150.606 117.784C151.118 117.997 151.64 118.104 152.174 118.104C152.899 118.104 153.486 117.923 153.934 117.56C154.382 117.197 154.798 116.589 155.182 115.736L156.174 113.496L156.494 113.016L162.958 97.912H166.798L158.798 116.376C158.264 117.656 157.667 118.669 157.006 119.416C156.366 120.163 155.64 120.685 154.83 120.984C154.04 121.283 153.166 121.432 152.206 121.432ZM155.726 115.608L148.014 97.912H152.174L158.446 112.664L155.726 115.608ZM173.629 115.224C171.88 115.224 170.322 114.851 168.957 114.104C167.592 113.336 166.514 112.291 165.725 110.968C164.936 109.645 164.541 108.141 164.541 106.456C164.541 104.749 164.936 103.245 165.725 101.944C166.514 100.621 167.592 99.5867 168.957 98.84C170.322 98.0933 171.88 97.72 173.629 97.72C175.4 97.72 176.968 98.0933 178.333 98.84C179.72 99.5867 180.797 100.611 181.565 101.912C182.354 103.213 182.749 104.728 182.749 106.456C182.749 108.141 182.354 109.645 181.565 110.968C180.797 112.291 179.72 113.336 178.333 114.104C176.968 114.851 175.4 115.224 173.629 115.224ZM173.629 111.8C174.61 111.8 175.485 111.587 176.253 111.16C177.021 110.733 177.618 110.115 178.045 109.304C178.493 108.493 178.717 107.544 178.717 106.456C178.717 105.347 178.493 104.397 178.045 103.608C177.618 102.797 177.021 102.179 176.253 101.752C175.485 101.325 174.621 101.112 173.661 101.112C172.68 101.112 171.805 101.325 171.037 101.752C170.29 102.179 169.693 102.797 169.245 103.608C168.797 104.397 168.573 105.347 168.573 106.456C168.573 107.544 168.797 108.493 169.245 109.304C169.693 110.115 170.29 110.733 171.037 111.16C171.805 111.587 172.669 111.8 173.629 111.8ZM190.926 115.224C189.475 115.224 188.195 114.957 187.086 114.424C185.977 113.869 185.113 113.037 184.494 111.928C183.875 110.797 183.566 109.379 183.566 107.672V97.912H187.566V107.128C187.566 108.664 187.907 109.816 188.59 110.584C189.294 111.331 190.286 111.704 191.566 111.704C192.505 111.704 193.315 111.512 193.998 111.128C194.702 110.744 195.246 110.168 195.63 109.4C196.035 108.632 196.238 107.683 196.238 106.552V97.912H200.238V115H196.43V110.392L197.102 111.8C196.526 112.909 195.683 113.763 194.574 114.36C193.465 114.936 192.249 115.224 190.926 115.224ZM202.595 115V97.912H206.403V102.616L205.955 101.24C206.467 100.088 207.267 99.2133 208.355 98.616C209.465 98.0187 210.841 97.72 212.483 97.72V101.528C212.313 101.485 212.153 101.464 212.003 101.464C211.854 101.443 211.705 101.432 211.555 101.432C210.041 101.432 208.835 101.88 207.939 102.776C207.043 103.651 206.595 104.963 206.595 106.712V115H202.595ZM31.056 147.224C29.1787 147.224 27.728 146.744 26.704 145.784C25.68 144.803 25.168 143.363 25.168 141.464V126.136H29.168V141.368C29.168 142.179 29.3707 142.808 29.776 143.256C30.2027 143.704 30.7893 143.928 31.536 143.928C32.432 143.928 33.1787 143.693 33.776 143.224L34.896 146.072C34.4267 146.456 33.8507 146.744 33.168 146.936C32.4853 147.128 31.7813 147.224 31.056 147.224ZM22.352 133.112V129.912H33.744V133.112H22.352ZM45.2408 147V143.544L45.0168 142.808V136.76C45.0168 135.587 44.6648 134.68 43.9608 134.04C43.2568 133.379 42.1901 133.048 40.7608 133.048C39.8008 133.048 38.8514 133.197 37.9128 133.496C36.9954 133.795 36.2168 134.211 35.5768 134.744L34.0087 131.832C34.9261 131.128 36.0141 130.605 37.2727 130.264C38.5528 129.901 39.8754 129.72 41.2408 129.72C43.7154 129.72 45.6248 130.317 46.9688 131.512C48.3341 132.685 49.0168 134.509 49.0168 136.984V147H45.2408ZM39.8648 147.224C38.5848 147.224 37.4648 147.011 36.5048 146.584C35.5448 146.136 34.7981 145.528 34.2648 144.76C33.7527 143.971 33.4967 143.085 33.4967 142.104C33.4967 141.144 33.7208 140.28 34.1688 139.512C34.6381 138.744 35.3954 138.136 36.4408 137.688C37.4861 137.24 38.8727 137.016 40.6007 137.016H45.5608V139.672H40.8888C39.5234 139.672 38.6061 139.896 38.1368 140.344C37.6674 140.771 37.4328 141.304 37.4328 141.944C37.4328 142.669 37.7208 143.245 38.2968 143.672C38.8728 144.099 39.6728 144.312 40.6968 144.312C41.6781 144.312 42.5528 144.088 43.3208 143.64C44.1101 143.192 44.6754 142.531 45.0168 141.656L45.6888 144.056C45.3048 145.059 44.6114 145.837 43.6088 146.392C42.6274 146.947 41.3794 147.224 39.8648 147.224ZM56.5503 147.224C55.1209 147.224 53.7449 147.043 52.4223 146.68C51.1209 146.296 50.0862 145.837 49.3182 145.304L50.8542 142.264C51.6222 142.755 52.5396 143.16 53.6062 143.48C54.6729 143.8 55.7396 143.96 56.8063 143.96C58.0649 143.96 58.9716 143.789 59.5262 143.448C60.1023 143.107 60.3903 142.648 60.3903 142.072C60.3903 141.603 60.1983 141.251 59.8142 141.016C59.4303 140.76 58.9289 140.568 58.3103 140.44C57.6916 140.312 56.9983 140.195 56.2303 140.088C55.4836 139.981 54.7263 139.843 53.9583 139.672C53.2116 139.48 52.5289 139.213 51.9102 138.872C51.2916 138.509 50.7902 138.029 50.4062 137.432C50.0222 136.835 49.8302 136.045 49.8302 135.064C49.8302 133.976 50.1396 133.037 50.7582 132.248C51.3769 131.437 52.2409 130.819 53.3502 130.392C54.4809 129.944 55.8142 129.72 57.3503 129.72C58.5023 129.72 59.6649 129.848 60.8383 130.104C62.0116 130.36 62.9823 130.723 63.7503 131.192L62.2143 134.232C61.4036 133.741 60.5822 133.411 59.7502 133.24C58.9396 133.048 58.1289 132.952 57.3183 132.952C56.1023 132.952 55.1956 133.133 54.5982 133.496C54.0223 133.859 53.7343 134.317 53.7343 134.872C53.7343 135.384 53.9262 135.768 54.3102 136.024C54.6942 136.28 55.1956 136.483 55.8142 136.632C56.4329 136.781 57.1156 136.909 57.8623 137.016C58.6302 137.101 59.3876 137.24 60.1343 137.432C60.8809 137.624 61.5636 137.891 62.1823 138.232C62.8223 138.552 63.3343 139.011 63.7183 139.608C64.1023 140.205 64.2943 140.984 64.2943 141.944C64.2943 143.011 63.9743 143.939 63.3343 144.728C62.7156 145.517 61.8303 146.136 60.6783 146.584C59.5263 147.011 58.1503 147.224 56.5503 147.224ZM68.123 143.192L68.219 138.168L77.147 129.912H81.947L74.363 137.528L72.251 139.288L68.123 143.192ZM64.859 147V123.256H68.859V147H64.859ZM77.755 147L71.515 139.288L74.043 136.088L82.619 147H77.755ZM87.0402 147.224C85.6109 147.224 84.2349 147.043 82.9122 146.68C81.6109 146.296 80.5762 145.837 79.8082 145.304L81.3442 142.264C82.1122 142.755 83.0296 143.16 84.0962 143.48C85.1629 143.8 86.2296 143.96 87.2963 143.96C88.5549 143.96 89.4616 143.789 90.0162 143.448C90.5922 143.107 90.8802 142.648 90.8802 142.072C90.8802 141.603 90.6882 141.251 90.3042 141.016C89.9203 140.76 89.4189 140.568 88.8003 140.44C88.1816 140.312 87.4882 140.195 86.7203 140.088C85.9736 139.981 85.2162 139.843 84.4482 139.672C83.7016 139.48 83.0189 139.213 82.4002 138.872C81.7816 138.509 81.2802 138.029 80.8962 137.432C80.5122 136.835 80.3202 136.045 80.3202 135.064C80.3202 133.976 80.6296 133.037 81.2482 132.248C81.8669 131.437 82.7309 130.819 83.8402 130.392C84.9709 129.944 86.3042 129.72 87.8403 129.72C88.9922 129.72 90.1549 129.848 91.3282 130.104C92.5016 130.36 93.4723 130.723 94.2403 131.192L92.7043 134.232C91.8936 133.741 91.0722 133.411 90.2402 133.24C89.4296 133.048 88.6189 132.952 87.8083 132.952C86.5923 132.952 85.6856 133.133 85.0882 133.496C84.5122 133.859 84.2242 134.317 84.2242 134.872C84.2242 135.384 84.4162 135.768 84.8002 136.024C85.1842 136.28 85.6856 136.483 86.3042 136.632C86.9229 136.781 87.6056 136.909 88.3523 137.016C89.1202 137.101 89.8776 137.24 90.6243 137.432C91.3709 137.624 92.0536 137.891 92.6722 138.232C93.3122 138.552 93.8242 139.011 94.2083 139.608C94.5923 140.205 94.7843 140.984 94.7843 141.944C94.7843 143.011 94.4643 143.939 93.8243 144.728C93.2056 145.517 92.3202 146.136 91.1683 146.584C90.0163 147.011 88.6403 147.224 87.0402 147.224Z" fill="#F9F9F9"/>
<path d="M22 119H50.4391V120.6H22V119ZM69.0375 119H142.21V120.6H69.0375V119Z" fill="#F9F9F9"/>
</g>
<defs>
<clipPath id="clip0_271_42">
<rect width="245" height="303" fill="white"/>
</clipPath>
</defs>
</svg>
