<svg width="32" height="32" viewBox="0 0 32 32" fill="none" xmlns="http://www.w3.org/2000/svg">
<path d="M22 10C21.364 10 20.4143 10.5497 19.6171 11.1062C18.5886 11.8217 17.6911 12.6767 17.0063 13.657C16.4929 14.392 16 15.283 16 16M16 16C16 15.283 15.5071 14.3912 14.9937 13.657C14.308 12.6767 13.4106 11.8217 12.3837 11.1062C11.5857 10.5497 10.6343 10 10 10M16 16V15.25" stroke="#DD0000" stroke-width="1.2"/>
<path d="M22 22C21.364 22 20.4143 21.4503 19.6171 20.8938C18.5886 20.1783 17.6911 19.3233 17.0063 18.343C16.4929 17.608 16 16.717 16 16M16 16C16 16.717 15.5071 17.6088 14.9937 18.343C14.308 19.3233 13.4106 20.1783 12.3837 20.8938C11.5857 21.4503 10.6343 22 10 22M16 16V16.75" stroke="#DD0000" stroke-width="1.2"/>
<circle cx="16" cy="16" r="15.5" stroke="#DD0000"/>
</svg>
