<svg width="28" height="28" viewBox="0 0 28 28" fill="none" xmlns="http://www.w3.org/2000/svg">
<path fill-rule="evenodd" clip-rule="evenodd" d="M8.274 7.4L9.086 21.048C9.09823 21.2514 9.18761 21.4425 9.3359 21.5822C9.4842 21.722 9.68023 21.7999 9.884 21.8H17.116C17.3198 21.7999 17.5158 21.722 17.6641 21.5822C17.8124 21.4425 17.9018 21.2514 17.914 21.048L18.726 7.4H8.274ZM19.929 7.4L19.112 21.119C19.0817 21.6279 18.8582 22.1059 18.4872 22.4555C18.1162 22.8051 17.6258 22.9999 17.116 23H9.884C9.37425 22.9999 8.88377 22.8051 8.51279 22.4555C8.14182 22.1059 7.91833 21.6279 7.888 21.119L7.071 7.4H5V6.7C5 6.56739 5.05268 6.44021 5.14645 6.34645C5.24021 6.25268 5.36739 6.2 5.5 6.2H21.5C21.6326 6.2 21.7598 6.25268 21.8536 6.34645C21.9473 6.44021 22 6.56739 22 6.7V7.4H19.929ZM15.5 4C15.6326 4 15.7598 4.05268 15.8536 4.14645C15.9473 4.24021 16 4.36739 16 4.5V5.2H11V4.5C11 4.36739 11.0527 4.24021 11.1464 4.14645C11.2402 4.05268 11.3674 4 11.5 4H15.5ZM11 10H12.2L12.7 19H11.5L11 10ZM14.8 10H16L15.5 19H14.3L14.8 10Z" fill="#DD0000"/>
</svg>
