<svg width="98" height="33" viewBox="0 0 98 33" fill="none" xmlns="http://www.w3.org/2000/svg">
<path d="M64.772 26V7.10001H78.569V10.043H68.282V26H64.772ZM67.985 18.764V15.794H77.408V18.764H67.985Z" fill="white"/>
<path d="M83.0974 26V18.521L83.8804 20.681L75.6724 7.10001H79.4254L86.0134 18.035H83.9074L90 7.50001L92 10L85.7974 20.681L86.6074 18.521V26H83.0974Z" fill="white"/>
<path d="M93.5 2C95.9853 2 98 4.01472 98 6.5C98 8.98528 95.9853 11 93.5 11C91.0147 11 89 8.98528 89 6.5C89 4.01472 91.0147 2 93.5 2ZM93.5 3.28613C91.7248 3.28613 90.2861 4.7248 90.2861 6.5C90.2861 8.2752 91.7248 9.71387 93.5 9.71387C95.2752 9.71387 96.7139 8.2752 96.7139 6.5C96.7139 4.7248 95.2752 3.28613 93.5 3.28613Z" fill="#F9F9F9"/>
<path d="M6.49747 26V10.07H0.233469V7.1H16.2715V10.07H10.0075V26H6.49747ZM11.7734 26L20.2784 7.1H23.7344L32.2664 26H28.5944L21.2774 8.963H22.6814L15.3914 26H11.7734ZM15.6884 21.626L16.6334 18.872H26.8394L27.7844 21.626H15.6884ZM37.0191 26.27C35.5431 26.27 34.1301 26.063 32.7801 25.649C31.4301 25.217 30.3591 24.668 29.5671 24.002L30.7821 21.275C31.5381 21.869 32.4741 22.364 33.5901 22.76C34.7061 23.156 35.8491 23.354 37.0191 23.354C38.0091 23.354 38.8101 23.246 39.4221 23.03C40.0341 22.814 40.4841 22.526 40.7721 22.166C41.0601 21.788 41.2041 21.365 41.2041 20.897C41.2041 20.321 40.9971 19.862 40.5831 19.52C40.1691 19.16 39.6291 18.881 38.9631 18.683C38.3151 18.467 37.5861 18.269 36.7761 18.089C35.9841 17.909 35.1831 17.702 34.3731 17.468C33.5811 17.216 32.8521 16.901 32.1861 16.523C31.5381 16.127 31.0071 15.605 30.5931 14.957C30.1791 14.309 29.9721 13.481 29.9721 12.473C29.9721 11.447 30.2421 10.511 30.7821 9.665C31.3401 8.801 32.1771 8.117 33.2931 7.613C34.4271 7.091 35.8581 6.83 37.5861 6.83C38.7201 6.83 39.8451 6.974 40.9611 7.262C42.0771 7.55 43.0491 7.964 43.8771 8.504L42.7701 11.231C41.9241 10.727 41.0511 10.358 40.1511 10.124C39.2511 9.872 38.3871 9.746 37.5591 9.746C36.5871 9.746 35.7951 9.863 35.1831 10.097C34.5891 10.331 34.1481 10.637 33.8601 11.015C33.5901 11.393 33.4551 11.825 33.4551 12.311C33.4551 12.887 33.6531 13.355 34.0491 13.715C34.4631 14.057 34.9941 14.327 35.6421 14.525C36.3081 14.723 37.0461 14.921 37.8561 15.119C38.6661 15.299 39.4671 15.506 40.2591 15.74C41.0691 15.974 41.7981 16.28 42.4461 16.658C43.1121 17.036 43.6431 17.549 44.0391 18.197C44.4531 18.845 44.6601 19.664 44.6601 20.654C44.6601 21.662 44.3811 22.598 43.8231 23.462C43.2831 24.308 42.4461 24.992 41.3121 25.514C40.1781 26.018 38.7471 26.27 37.0191 26.27ZM47.7625 21.545L47.5735 17.387L57.4825 7.1H61.4245L53.1895 15.848L51.2455 17.981L47.7625 21.545ZM44.6305 26V7.1H48.1405V26H44.6305ZM57.8065 26L50.5705 17.387L52.8925 14.822L61.9105 26H57.8065ZM60.7905 26V7.1H64.3005V26H60.7905Z" fill="white"/>
</svg>
