<svg width="28" height="28" viewBox="0 0 28 28" fill="none" xmlns="http://www.w3.org/2000/svg">
<path d="M19.709 4.7998C20.8585 4.80012 21.5342 5.90722 21.5342 6.91699V21.083C21.5342 22.0928 20.8585 23.1999 19.709 23.2002H14.834V21.7998H19.709C19.7668 21.7996 19.859 21.7716 19.9561 21.6494C20.0542 21.5256 20.1338 21.3275 20.1338 21.083V6.91699C20.1338 6.67251 20.0542 6.4744 19.9561 6.35059C19.859 6.22835 19.7668 6.20035 19.709 6.2002H14.834V4.7998H19.709ZM12.4873 9.5C12.4873 9.9527 12.2543 10.3968 12.0449 10.7246C11.8164 11.0824 11.5218 11.4421 11.2412 11.7549H11.2422C10.7306 12.3258 10.1471 12.847 9.49902 13.2988L17 13.2949V14.6953L9.49414 14.6992C10.144 15.1516 10.7294 15.673 11.2422 16.2461C11.5224 16.5582 11.8165 16.9171 12.0449 17.2744C12.2545 17.6024 12.4873 18.0467 12.4873 18.5H11.0879C11.0879 18.5033 11.0866 18.4629 11.0479 18.3672C11.0107 18.2757 10.9503 18.1615 10.8652 18.0283C10.6945 17.7613 10.4553 17.4659 10.1992 17.1807V17.1797L9.95312 16.916C9.36617 16.3109 8.68718 15.7837 7.92578 15.3701L7.66113 15.2314C7.04434 14.9203 6.43691 14.7002 6 14.7002V13.2998L6.19727 13.2871C6.67989 13.2269 7.31057 12.9644 7.92578 12.6299L8.24707 12.4463C8.87947 12.0641 9.44991 11.602 9.95312 11.084L10.1992 10.8203L10.3877 10.6045C10.5709 10.3882 10.7372 10.1712 10.8652 9.9707C10.9503 9.83752 11.0107 9.72427 11.0479 9.63281C11.0869 9.53669 11.0879 9.49617 11.0879 9.5H12.4873Z" fill="#DD0000"/>
</svg>
