<svg width="574" height="574" viewBox="0 0 574 574" fill="none" xmlns="http://www.w3.org/2000/svg">
<path d="M213.62 45.2262C221.723 15.6291 252.11 -1.88991 281.721 5.81506L282.42 6.00158L527.87 73.1998L528.566 73.3961C557.972 81.8487 575.198 112.403 567.095 142L489.886 424.016L489.689 424.713C481.304 453.887 451.163 471.072 421.785 463.428L421.086 463.241L175.636 396.043L174.939 395.847C145.765 387.461 128.581 357.321 136.225 327.943L136.411 327.243L213.62 45.2262ZM279.779 15.6461C255.276 8.93785 229.974 23.3637 223.266 47.8668L146.056 329.883C139.347 354.387 153.773 379.689 178.276 386.397L423.727 453.596C448.23 460.304 473.532 445.879 480.24 421.376L557.45 139.359C564.159 114.856 549.732 89.554 525.229 82.8453L279.779 15.6461ZM245.446 213.903C246.139 211.319 248.734 209.753 251.32 210.307L251.57 210.367L378.675 244.42L378.921 244.493C381.438 245.306 382.902 247.96 382.21 250.544C381.517 253.127 378.923 254.693 376.337 254.139L376.087 254.079L248.982 220.027L248.735 219.954C246.218 219.141 244.754 216.487 245.446 213.903Z" fill="#F9F9F9"/>
<path opacity="0.7" d="M197.026 138.744L49.008 178.522L49.009 178.523C23.7776 185.33 8.84136 211.302 15.6477 236.534L93.719 525.944L93.8821 526.534C100.932 551.408 126.695 566.059 151.73 559.306L404.535 491.109L405.28 490.902C420.84 486.436 432.381 474.64 437.146 460.273L441.892 461.847L446.638 463.421C440.877 480.793 426.9 495.101 408.041 500.513L407.14 500.764L154.334 568.962C124.009 577.142 92.8002 559.394 84.261 529.263L84.0637 528.548L5.99241 239.138C-2.25225 208.575 15.841 177.114 46.4045 168.869L46.4094 168.867L194.43 129.085L197.026 138.744ZM224.999 290.166C225.691 287.582 228.286 286.015 230.872 286.569L231.122 286.629L307.385 307.049L307.632 307.123C310.149 307.935 311.613 310.589 310.922 313.172C310.23 315.756 307.635 317.323 305.049 316.769L304.798 316.71L228.536 296.289L228.289 296.215C225.772 295.403 224.308 292.75 224.999 290.166Z" fill="#F9F9F9"/>
</svg>
