<svg width="32" height="32" viewBox="0 0 32 32" fill="none" xmlns="http://www.w3.org/2000/svg">
<g clip-path="url(#clip0_13_191)">
<path d="M22.3333 15.4966V19.3333C22.3333 20.0405 22.0524 20.7188 21.5523 21.2189C21.0522 21.719 20.3739 22 19.6667 22H12.6667C11.9594 22 11.2811 21.719 10.781 21.2189C10.281 20.7188 10 20.0405 10 19.3333V13.3333C10 12.626 10.281 11.9478 10.781 11.4477C11.2811 10.9476 11.9594 10.6666 12.6667 10.6666H17.434" stroke="#F9F9F9" stroke-linecap="round" stroke-linejoin="round"/>
<path d="M10 13.3933L14.8333 16.1466C15.2374 16.3847 15.6977 16.5102 16.1667 16.5102C16.6356 16.5102 17.096 16.3847 17.5 16.1466L18.9793 15.3086" stroke="#F9F9F9" stroke-linecap="round" stroke-linejoin="round"/>
<path d="M20.8334 13.3333C21.7539 13.3333 22.5001 12.5871 22.5001 11.6667C22.5001 10.7462 21.7539 10 20.8334 10C19.9129 10 19.1667 10.7462 19.1667 11.6667C19.1667 12.5871 19.9129 13.3333 20.8334 13.3333Z" stroke="#F9F9F9"/>
<circle cx="16" cy="16" r="15.8" stroke="#F9F9F9" stroke-width="0.4"/>
</g>
<defs>
<clipPath id="clip0_13_191">
<rect width="32" height="32" fill="white"/>
</clipPath>
</defs>
</svg>
